<?xml version="1.0" encoding="utf-8"?>
<!-- Generator: Adobe Illustrator 17.1.0, SVG Export Plug-In . SVG Version: 6.00 Build 0)  -->
<!DOCTYPE svg PUBLIC "-//W3C//DTD SVG 1.1//EN" "http://www.w3.org/Graphics/SVG/1.1/DTD/svg11.dtd">
<svg version="1.1" id="Layer_1" xmlns="http://www.w3.org/2000/svg" xmlns:xlink="http://www.w3.org/1999/xlink" x="0px" y="0px"
	 viewBox="0 0 500 500" enable-background="new 0 0 500 500" xml:space="preserve">
<g>
	<path fill="#34BFC3" d="M414.7,249.8c41.4,45.6,59.7,90.6,42.8,119.8c-11.5,19.9-37.2,29.3-71.4,29.3c-16.1,0-34.4-2.1-53.8-6.3
		c-18.7,58.7-48.7,96.9-82.4,96.9s-63.7-38.1-82.4-96.9c-19.4,4.2-37.7,6.3-53.8,6.3c-34.2,0-59.9-9.4-71.4-29.3
		c-16.8-29.3,1.4-74.2,42.8-119.8C43.8,204.1,25.5,159.2,42.4,130c11.5-19.9,37.2-29.3,71.4-29.3c16.1,0,34.4,2.1,53.8,6.3
		c18.7-58.7,48.7-96.9,82.4-96.9s63.7,38.1,82.4,96.9c19.4-4.2,37.7-6.3,53.8-6.3c34.2,0,59.9,9.4,71.4,29.3
		C474.4,159.2,456.1,204.1,414.7,249.8z M57.4,360.9c8.7,15.2,28.8,22.5,55.9,22.5c14.7,0,31.6-2.1,49.8-6.3
		c-5.9-21.3-10.1-44.7-12.9-69.7c-20.4-15-38.4-30.4-54.1-46.1C59.9,300.3,43.8,337.5,57.4,360.9z M57.4,138.4
		c-13.6,23.4,2.8,60.6,38.8,99.7c15.7-15.7,33.9-31.1,54.3-45.9c2.6-25,6.8-48.7,12.6-69.7c-18.5-4.2-35.3-6.3-50.3-6.3
		C85.9,116.2,66,123.2,57.4,138.4z M148.4,214.7c-15.2,11.5-28.8,23.4-40.7,35.1c11.9,11.7,25.5,23.4,40.7,35.1
		C147,261.9,147,237.6,148.4,214.7z M333.5,201.6c-25.7-17.8-55.2-34.6-83.8-48.2c-28.1,13.1-57.8,30.2-83.1,48
		c-2.8,31.4-3,65.8-0.2,96.6c25.7,17.8,55.2,34.6,83.8,48.2c28.1-13.6,57.8-30.7,83.1-48C336.1,266.9,335.8,232.5,333.5,201.6z
		 M178.8,373.1c16.1-4.4,33.2-10.5,50.8-17.8c-20.8-10.5-41.9-22.5-60.8-35.3C171.3,338.9,174.6,356.7,178.8,373.1z M169,179.3
		c18.7-12.6,40-24.8,60.6-35.1c-17.6-7.3-34.6-13.3-50.8-17.8C174.6,142.6,171.3,160.6,169,179.3z M183.3,110.8
		c21.1,5.6,43.5,13.8,66.5,24.1c23.2-10.3,45.6-18.3,66.9-24.1C301,60,276.9,27.2,250,27.2C222.8,27.2,198.9,60,183.3,110.8z
		 M316.7,388.5c-21.1-5.6-43.5-13.8-66.5-23.9c-23.2,10.3-45.6,18.3-66.9,23.9c15.7,51,39.5,83.8,66.7,83.8
		C277.1,472.3,301,439.6,316.7,388.5z M267,249.8c0,9.4-7.7,17.1-17.1,17.1s-17.1-7.7-17.1-17.1s7.7-17.1,17.1-17.1
		S267,240.4,267,249.8z M321.1,126.5c-16.1,4.4-33.2,10.5-50.8,17.8c20.6,10.3,41.7,22.5,60.8,35.1
		C328.6,160.4,325.3,142.8,321.1,126.5z M330.9,320.2c-18.5,12.4-39.8,24.3-60.6,34.9c17.6,7.5,34.6,13.6,50.8,18
		C325.3,357,328.6,338.9,330.9,320.2z M442.5,138.4c-8.7-15.2-28.5-22.2-55.5-22.2c-15,0-31.8,2.1-50.3,6.3
		c5.9,21.3,10.1,44.7,12.9,69.7c20.4,15,38.4,30.4,54.1,45.9C440,199.2,456.1,162,442.5,138.4z M442.5,360.9
		c13.6-23.4-2.8-60.6-38.8-99.5c-15.7,15.4-33.9,31.1-54.3,45.9c-2.6,25-6.8,48.4-12.6,69.7c18.3,4.2,35.1,6.3,49.8,6.3
		C413.8,383.4,433.9,376.1,442.5,360.9z M351.5,284.9c15.2-11.7,28.8-23.4,40.7-35.1c-11.9-11.7-25.5-23.6-40.7-35.1
		C352.9,237.6,352.9,261.9,351.5,284.9z"/>
</g>
</svg>
