<?xml version="1.0" encoding="utf-8"?>
<!-- Generator: Adobe Illustrator 17.1.0, SVG Export Plug-In . SVG Version: 6.00 Build 0)  -->
<!DOCTYPE svg PUBLIC "-//W3C//DTD SVG 1.1//EN" "http://www.w3.org/Graphics/SVG/1.1/DTD/svg11.dtd">
<svg version="1.1" id="Layer_1" xmlns="http://www.w3.org/2000/svg" xmlns:xlink="http://www.w3.org/1999/xlink" x="0px" y="0px"
	 viewBox="0 0 500 500" enable-background="new 0 0 500 500" xml:space="preserve">
<g>
	<path fill="#34BFC3" d="M490.1,78.5v342.4H10.8V78.5H490.1z M199.2,95.8H27.9V301h171.3v-23.9c-25.7-16.6-42.8-45.6-42.8-78.9
		c0-33,17.1-62,42.8-78.6V95.8z M199.2,318.1H27.9v17.3h171.3V318.1z M199.2,352.5H27.9v17.1h171.3V352.5z M199.2,386.7H27.9v17.1
		h171.3V386.7z M45,198.3c0-23.6,19.2-42.6,42.8-42.6s42.8,19,42.8,42.6s-19.2,42.8-42.8,42.8S45,221.9,45,198.3z M62.1,198.3
		c0,14.3,11.7,25.7,25.7,25.7c14.3,0,25.7-11.5,25.7-25.7c0-14-11.5-25.5-25.7-25.5C73.8,172.8,62.1,184.3,62.1,198.3z M199.2,141.2
		c-15.9,14-25.7,34.4-25.7,57.1c0,22.9,9.8,43.3,25.7,57.3V141.2z M284.6,95.8h-68.3V301h68.3V95.8z M284.6,318.1h-68.3v85.6h68.3
		V318.1z M473,95.8H301.7v23.9c25.7,16.6,42.8,45.6,42.8,78.6c0,33.2-17.1,62.2-42.8,78.9V301H473V95.8z M301.7,255.6
		c15.9-14,25.7-34.4,25.7-57.3c0-22.7-9.8-43.1-25.7-57.1V255.6z M473,318.1H301.7v17.3H473V318.1z M473,352.5H301.7v17.1H473V352.5
		z M473,386.7H301.7v17.1H473V386.7z M370.3,198.3c0-23.6,19.2-42.6,42.8-42.6s42.8,19,42.8,42.6s-19.2,42.8-42.8,42.8
		S370.3,221.9,370.3,198.3z M387.4,198.3c0,14.3,11.5,25.7,25.7,25.7c14,0,25.7-11.5,25.7-25.7c0-14-11.7-25.5-25.7-25.5
		C398.8,172.8,387.4,184.3,387.4,198.3z"/>
</g>
</svg>
