<svg xmlns="http://www.w3.org/2000/svg" viewBox="0 0 1200 1800" enable-background="new 0 0 1200 1800">
    <path fill="#333" d="M904.8 799.5c-1.8-3.9-3.7-7.7-5.6-11.5-15.8-30.9-36.5-59.5-61.8-84.8-35.3-35.3-77.2-61.8-122.8-78.4-4.3-1.6-8.6-3-13-4.4-7.4-2.3-14.8-4.4-22.3-6.2-15.8-33.7-40.2-62.7-70.4-84-3-2.1-6-4.1-9.1-6.1-3.1 2-6.1 4-9.1 6.1-30.2 21.3-54.6 50.3-70.4 84-7.5 1.8-15 3.9-22.3 6.2-4.4 1.4-8.7 2.8-13 4.4-45.6 16.5-87.4 43-122.8 78.4-25.3 25.3-46 53.8-61.8 84.8-1.9 3.8-3.8 7.6-5.6 11.5-20.3 43.7-31 91.7-31 141.3 0 28 3.4 55.5 10 82 .9 3.4 1.8 6.9 2.8 10.3 1.3 4.7 2.8 9.4 4.3 14 1.4 4.3 3 8.6 4.6 12.9 16.6 43.9 42.5 84.2 76.7 118.4 22.5 22.5 47.6 41.4 74.6 56.4 3.1 1.7 6.2 3.4 9.4 5 46.9 24.2 99.3 37 153.6 37 79.9 0 155.5-27.7 216-78.6 3-2.5 6-5.1 8.9-7.7 4.3-3.9 8.6-7.9 12.7-12.1 32.4-32.4 57.3-70.2 74-111.3 1-2.4 1.9-4.7 2.8-7.1.5-1.3 1-2.6 1.4-3.9 1.1-3 2.1-6 3.1-9 11.2-33.8 17.1-69.6 17.1-106.3 0-49.6-10.8-97.6-31-141.3zm-305-263.4c28.2 19.1 51.3 45 67 75.4 1.9 3.7 3.7 7.5 5.4 11.4 1.9 4.3 3.7 8.7 5.3 13.2 1.2 3.3 2.3 6.6 3.3 10 5.6 18.5 8.6 38.2 8.6 58.5 0 29.1-6.1 56.7-17.2 81.7-1.4 3.1-2.8 6.1-4.3 9.1-11.3 22.5-26.7 42.7-45.1 59.5-.4.4-.9.8-1.3 1.1-2.9 2.6-5.9 5.1-8.9 7.5-.7.6-1.5 1.2-2.2 1.7-3.4 2.7-7 5.2-10.6 7.7-3.6-2.5-7.1-5-10.6-7.7-.7-.6-1.5-1.2-2.2-1.7-3-2.4-6-4.9-8.9-7.5-.4-.4-.9-.8-1.3-1.1-18.5-16.8-33.8-37-45.1-59.5-1.5-3-2.9-6.1-4.3-9.1-11-25-17.2-52.7-17.2-81.7 0-20.3 3-39.9 8.6-58.5 1-3.4 2.1-6.7 3.3-10 1.6-4.5 3.4-8.9 5.3-13.2 1.7-3.9 3.5-7.7 5.4-11.4 15.7-30.4 38.8-56.3 67-75.4zm122 371.7c-.3 3.4-.7 6.7-1.3 10.1-.5 3.1-1.2 6.1-1.9 9.1-1.5-3-3.1-6-4.9-8.9-2.1-3.5-4.3-6.9-6.7-10.1-17.5-24.2-43-42.2-72.6-50.3 16.7-16.3 30.8-35.2 41.6-56.2 28.1 22.5 46.2 57 46.2 95.8.1 3.5-.1 7-.4 10.5zm-236 10.2c-1.7 2.9-3.3 5.9-4.9 8.9-.7-3-1.4-6-1.9-9.1-.6-3.3-1-6.7-1.3-10.1-.3-3.5-.5-7-.5-10.6 0-38.7 18.1-73.3 46.2-95.8 10.7 21 24.8 39.9 41.6 56.2-29.6 8-55.1 26.1-72.6 50.3-2.3 3.4-4.6 6.7-6.6 10.2zm344.5 253.4c-5.4 5.4-10.9 10.5-16.5 15.4-2.8 2.4-5.6 4.8-8.4 7.1-58 47.3-129.8 73-205.6 73-51.6 0-101.3-11.9-146.1-34.4-3.1-1.6-6.2-3.2-9.2-4.8-27.3-14.8-52.6-33.7-75.2-56.2-31-31-55-67.2-71.2-106.6-1.7-4.1-3.3-8.2-4.8-12.4-3-8.2-5.6-16.6-8-25 19.4-11.8 42.2-18.5 66.6-18.5 40.3 0 76.3 18.5 100 47.5 2.2 2.7 4.3 5.5 6.3 8.4 3.2-1.1 6.5-2.3 9.7-3.6 6.1-2.4 12.2-5.1 18.1-8 3-1.5 6-3 8.9-4.6 16.4-9 31.9-19.9 46.2-32.6 2.7-2.4 5.3-4.8 7.8-7.3l2.1-2.1c20.5-20.5 37-44.1 48.9-69.7 11.9 25.6 28.3 49.1 48.9 69.7l2.1 2.1c2.6 2.5 5.2 5 7.8 7.3 14.2 12.7 29.7 23.7 46.2 32.6 2.9 1.6 5.9 3.1 8.9 4.6 16.4 8.1 33.7 14.3 51.6 18.5 3.4.8 6.8 1.5 10.2 2.2 1.8-3.2 3.8-6.2 5.9-9.1 14.7-19.4 37.9-32 64.1-32 21.3 0 40.6 8.3 55 21.8 1.3 1.2 2.5 2.4 3.7 3.7-.8 2.2-1.7 4.4-2.6 6.5-16.4 39.3-40.4 75.4-71.4 106.5zm77.6-123.6c-16.2-15.5-38.2-25.1-62.4-25.1-31.1 0-58.6 15.8-74.9 39.9-18.1-4-35.6-10.1-52.1-18.2-3-1.5-6-3-8.9-4.6-14.8-8-28.7-17.7-41.7-29-2.6-2.3-5.2-4.6-7.8-7-1.5-1.4-3-2.9-4.4-4.3-21.9-21.9-38.9-47.4-50.5-75.1-2-4.7-3.8-9.4-5.4-14.2-1.6 4.8-3.4 9.5-5.4 14.2-11.6 27.7-28.6 53.2-50.5 75.1-1.5 1.5-3 2.9-4.4 4.3-2.5 2.4-5.1 4.8-7.8 7-12.9 11.2-26.9 20.9-41.7 29-2.9 1.6-5.9 3.1-8.9 4.6-6.3 3.1-12.8 5.9-19.3 8.4-25.5-32.8-65.3-54-109.9-54-25.1 0-48.8 6.7-69.1 18.4-5.9-24.7-9-50.3-9-76.4 0-45.6 9.3-89.7 27-130.2 1.7-3.8 3.4-7.6 5.2-11.3 15.7-32.6 37-62.7 63.3-89 36.4-36.4 80-63.2 127.5-78.9 4.2-1.4 8.5-2.7 12.7-3.9l4.1 2.7c-1.2 3.2-2.3 6.5-3.4 9.8-6.5 20.4-10 42.1-10 64.6 0 31.2 6.7 60.9 18.8 87.7-31.5 24.2-51.8 62.3-51.8 105 0 3.4.1 6.7.4 10 .3 3.4.6 6.8 1.2 10.1 1.3 8.3 3.3 16.3 6 24 1.8 4.9 3.8 9.7 6.1 14.4 1.2-4.9 2.8-9.7 4.6-14.4 3.2-8.4 7.4-16.3 12.3-23.7 2.5-3.7 5.1-7.2 8-10.6 17.2-20.6 41-35.4 68.1-41.3 2 1.7 4 3.4 6 5 3.5 2.8 7.1 5.6 10.8 8.2l.9.6c2.7 1.9 5.5 3.7 8.3 5.5 2.8-1.8 5.6-3.6 8.3-5.5l.9-.6c3.7-2.6 7.3-5.3 10.8-8.2 2-1.6 4-3.3 6-5 27.1 5.9 50.9 20.7 68.1 41.3 2.8 3.4 5.5 6.9 8 10.6 4.9 7.4 9.1 15.3 12.3 23.7 1.8 4.7 3.3 9.5 4.6 14.4 2.3-4.7 4.3-9.5 6.1-14.4 2.7-7.7 4.8-15.7 6-24 .5-3.3.9-6.7 1.2-10.1.2-3.3.4-6.6.4-10 0-42.7-20.3-80.7-51.8-105 12.1-26.8 18.8-56.4 18.8-87.7 0-22.5-3.5-44.2-10-64.6-1.1-3.3-2.2-6.6-3.4-9.8l4.1-2.7c4.3 1.2 8.5 2.5 12.7 3.9 47.5 15.8 91.1 42.5 127.5 78.9 26.3 26.3 47.6 56.4 63.3 89 1.8 3.7 3.5 7.5 5.2 11.3 17.7 40.5 27 84.7 27 130.2-.2 37-6.4 73.1-18.1 107z"/>
</svg>
