<?xml version="1.0" encoding="utf-8"?>
<!-- Generator: Adobe Illustrator 17.1.0, SVG Export Plug-In . SVG Version: 6.00 Build 0)  -->
<!DOCTYPE svg PUBLIC "-//W3C//DTD SVG 1.1//EN" "http://www.w3.org/Graphics/SVG/1.1/DTD/svg11.dtd">
<svg version="1.1" id="Layer_1" xmlns="http://www.w3.org/2000/svg" xmlns:xlink="http://www.w3.org/1999/xlink" x="0px" y="0px"
	 viewBox="0 0 500 500" enable-background="new 0 0 500 500" xml:space="preserve">
<g>
	<path fill="#34BFC3" d="M223.3,489.4c-14.5,0-59-10.8-59-40.7c0-11.7,6.8-24.1,20.4-37.9C109.6,384.3,61.6,308.5,61.6,224.3
		c0-117.2,89.6-214.1,196.6-214.1c99.5,0,180.4,83.3,180.4,196.3c0,117.7-90.1,214.6-197.3,214.1c4.4,13.3,8.7,27.8,8.7,40.3
		C250,474.2,244.1,489.4,223.3,489.4z M421.5,206.7c0-100.6-73-179.3-163.8-179.3c-97.8,0-179.3,91-179.3,197
		c0,95.7,68.8,179.3,163.3,179.3C339.6,403.8,421.5,313.7,421.5,206.7z M206.2,83.9c1.9,4.2-0.2,9.4-4.4,11.2
		c-2.3,0.9-54.8,24.6-54.8,86.1c0,4.9-3.7,8.7-8.7,8.7c-4.7,0-8.4-3.7-8.4-8.7c0-73.2,62.5-100.9,65.1-101.8
		C199.4,77.5,204.3,79.4,206.2,83.9z M233.4,461.3c0-11.7-6.3-30.4-10.1-41.4l-19.2-3.5c-19.9,17.1-22.9,27.6-22.9,32.5
		c0,13.6,30.7,22.7,42.1,22.7C231.5,471.6,233.4,468.1,233.4,461.3z"/>
</g>
</svg>
