<?xml version="1.0" encoding="utf-8"?>
<!-- Generator: Adobe Illustrator 17.1.0, SVG Export Plug-In . SVG Version: 6.00 Build 0)  -->
<!DOCTYPE svg PUBLIC "-//W3C//DTD SVG 1.1//EN" "http://www.w3.org/Graphics/SVG/1.1/DTD/svg11.dtd">
<svg version="1.1" id="Layer_1" xmlns="http://www.w3.org/2000/svg" xmlns:xlink="http://www.w3.org/1999/xlink" x="0px" y="0px"
	 viewBox="0 0 500 500" enable-background="new 0 0 500 500" xml:space="preserve">
<g>
	<path fill="#34BFC3" d="M421.6,70.1c0,30.2-22.2,55-51.2,59.2v52c0,47.3-38.4,85.6-85.6,85.6H147.8v103.4c29,4.2,51.5,29,51.5,59.2
		c0,33-26.9,59.9-59.9,59.9c-33.2,0-59.9-26.9-59.9-59.9c0-30.2,22.2-55,51.2-59.2v-241c-29-4.2-51.2-29-51.2-59.2
		c0-33,26.7-59.9,59.9-59.9c33,0,59.9,26.9,59.9,59.9c0,30.2-22.5,55-51.5,59.2v120.5h136.9c37.9,0,68.6-30.7,68.6-68.6v-52
		c-29-4.2-51.5-29-51.5-59.2c0-33,26.9-59.9,59.9-59.9C394.9,10.1,421.6,37.1,421.6,70.1z M181.9,70.1c0-23.6-19-42.8-42.6-42.8
		S96.5,46.4,96.5,70.1s19.2,42.8,42.8,42.8S181.9,93.7,181.9,70.1z M139.3,386.7c-23.6,0-42.8,19.2-42.8,42.8s19.2,42.8,42.8,42.8
		s42.6-19.2,42.6-42.8S163,386.7,139.3,386.7z M404.5,70.1c0-23.6-19.2-42.8-42.8-42.8s-42.6,19.2-42.6,42.8s19,42.8,42.6,42.8
		S404.5,93.7,404.5,70.1z"/>
</g>
</svg>
